<mxfile host="app.diagrams.net" modified="2024-07-08T10:07:05.104Z" agent="Mozilla/5.0 (Windows NT 10.0; Win64; x64; rv:127.0) Gecko/20100101 Firefox/127.0" etag="DKdGNgTSOZUvBCRFAVxN" version="24.6.4" type="device">
  <diagram name="Pagina-1" id="V_HNO9k4999z6F_fTRKg">
    <mxGraphModel dx="1909" dy="964" grid="1" gridSize="10" guides="1" tooltips="1" connect="1" arrows="1" fold="1" page="1" pageScale="1" pageWidth="827" pageHeight="1169" math="0" shadow="0">
      <root>
        <mxCell id="0" />
        <mxCell id="1" parent="0" />
        <mxCell id="HBmwAiEKgiXEF_s0nJef-17" value="Backend" style="swimlane;whiteSpace=wrap;startSize=40;" vertex="1" parent="1">
          <mxGeometry x="591" y="120" width="480" height="380" as="geometry" />
        </mxCell>
        <mxCell id="HBmwAiEKgiXEF_s0nJef-42" value="Generation Controller" style="swimlane;whiteSpace=wrap;html=1;" vertex="1" parent="HBmwAiEKgiXEF_s0nJef-17">
          <mxGeometry y="40" width="240" height="240" as="geometry" />
        </mxCell>
        <mxCell id="HBmwAiEKgiXEF_s0nJef-19" value="generateSystem" style="rounded=1;glass=0;shadow=0;" vertex="1" parent="HBmwAiEKgiXEF_s0nJef-42">
          <mxGeometry x="40" y="70" width="160" height="130" as="geometry" />
        </mxCell>
        <mxCell id="HBmwAiEKgiXEF_s0nJef-43" value="db Handler" style="swimlane;whiteSpace=wrap;html=1;" vertex="1" parent="HBmwAiEKgiXEF_s0nJef-17">
          <mxGeometry x="240" y="40" width="240" height="240" as="geometry" />
        </mxCell>
        <mxCell id="HBmwAiEKgiXEF_s0nJef-40" value="updateSystem" style="" vertex="1" parent="HBmwAiEKgiXEF_s0nJef-43">
          <mxGeometry x="40" y="75" width="160" height="40" as="geometry" />
        </mxCell>
        <mxCell id="HBmwAiEKgiXEF_s0nJef-109" value="updateSystemStatus" style="" vertex="1" parent="HBmwAiEKgiXEF_s0nJef-43">
          <mxGeometry x="40" y="130" width="160" height="40" as="geometry" />
        </mxCell>
        <mxCell id="HBmwAiEKgiXEF_s0nJef-44" value="" style="edgeStyle=orthogonalEdgeStyle;rounded=0;orthogonalLoop=1;jettySize=auto;html=1;entryX=0;entryY=0.5;entryDx=0;entryDy=0;" edge="1" parent="HBmwAiEKgiXEF_s0nJef-17" target="HBmwAiEKgiXEF_s0nJef-40">
          <mxGeometry relative="1" as="geometry">
            <mxPoint x="200" y="135" as="sourcePoint" />
            <Array as="points">
              <mxPoint x="200" y="135" />
            </Array>
          </mxGeometry>
        </mxCell>
        <mxCell id="HBmwAiEKgiXEF_s0nJef-57" value="api_handler_bridge" style="swimlane;whiteSpace=wrap;html=1;" vertex="1" parent="HBmwAiEKgiXEF_s0nJef-17">
          <mxGeometry x="240" y="280" width="240" height="100" as="geometry" />
        </mxCell>
        <mxCell id="HBmwAiEKgiXEF_s0nJef-58" value="assistant call" style="" vertex="1" parent="HBmwAiEKgiXEF_s0nJef-57">
          <mxGeometry x="40" y="45" width="160" height="40" as="geometry" />
        </mxCell>
        <mxCell id="HBmwAiEKgiXEF_s0nJef-69" style="edgeStyle=orthogonalEdgeStyle;rounded=0;orthogonalLoop=1;jettySize=auto;html=1;exitX=1.002;exitY=0.309;exitDx=0;exitDy=0;entryX=0;entryY=0.5;entryDx=0;entryDy=0;exitPerimeter=0;" edge="1" parent="HBmwAiEKgiXEF_s0nJef-17" source="HBmwAiEKgiXEF_s0nJef-19" target="HBmwAiEKgiXEF_s0nJef-58">
          <mxGeometry relative="1" as="geometry">
            <Array as="points">
              <mxPoint x="209" y="150" />
              <mxPoint x="209" y="345" />
            </Array>
          </mxGeometry>
        </mxCell>
        <mxCell id="HBmwAiEKgiXEF_s0nJef-111" style="edgeStyle=orthogonalEdgeStyle;rounded=0;orthogonalLoop=1;jettySize=auto;html=1;entryX=0;entryY=0.5;entryDx=0;entryDy=0;" edge="1" parent="HBmwAiEKgiXEF_s0nJef-17" target="HBmwAiEKgiXEF_s0nJef-109">
          <mxGeometry relative="1" as="geometry">
            <mxPoint x="200" y="190" as="sourcePoint" />
            <Array as="points">
              <mxPoint x="200" y="190" />
            </Array>
          </mxGeometry>
        </mxCell>
        <mxCell id="HBmwAiEKgiXEF_s0nJef-112" style="edgeStyle=orthogonalEdgeStyle;rounded=0;orthogonalLoop=1;jettySize=auto;html=1;exitX=1;exitY=0.75;exitDx=0;exitDy=0;entryX=0;entryY=0.75;entryDx=0;entryDy=0;" edge="1" parent="HBmwAiEKgiXEF_s0nJef-17" source="HBmwAiEKgiXEF_s0nJef-19" target="HBmwAiEKgiXEF_s0nJef-40">
          <mxGeometry relative="1" as="geometry">
            <Array as="points">
              <mxPoint x="229" y="208" />
              <mxPoint x="229" y="145" />
            </Array>
          </mxGeometry>
        </mxCell>
        <mxCell id="HBmwAiEKgiXEF_s0nJef-27" value="" style="ellipse;shape=startState;fillColor=#FFFFFF;strokeColor=#ff0000;" vertex="1" parent="1">
          <mxGeometry x="476.44" y="280" width="30" height="30" as="geometry" />
        </mxCell>
        <mxCell id="HBmwAiEKgiXEF_s0nJef-28" value="" style="edgeStyle=elbowEdgeStyle;elbow=horizontal;verticalAlign=bottom;endArrow=open;endSize=8;strokeColor=#FF0000;endFill=1;rounded=0;entryX=0;entryY=0.5;entryDx=0;entryDy=0;exitX=0.872;exitY=0.492;exitDx=0;exitDy=0;exitPerimeter=0;" edge="1" parent="1" source="HBmwAiEKgiXEF_s0nJef-27" target="HBmwAiEKgiXEF_s0nJef-19">
          <mxGeometry x="1540" y="160" as="geometry">
            <mxPoint x="200" y="400" as="targetPoint" />
          </mxGeometry>
        </mxCell>
        <mxCell id="HBmwAiEKgiXEF_s0nJef-29" value="Generate Container Design" style="text;html=1;align=center;verticalAlign=middle;whiteSpace=wrap;rounded=0;" vertex="1" parent="1">
          <mxGeometry x="414" y="250" width="154.87" height="30" as="geometry" />
        </mxCell>
        <mxCell id="HBmwAiEKgiXEF_s0nJef-45" value="Api Handler" style="swimlane;whiteSpace=wrap;startSize=40;" vertex="1" parent="1">
          <mxGeometry x="1310" y="250" width="730" height="580" as="geometry" />
        </mxCell>
        <mxCell id="HBmwAiEKgiXEF_s0nJef-46" value="Internal Controller" style="swimlane;whiteSpace=wrap;html=1;" vertex="1" parent="HBmwAiEKgiXEF_s0nJef-45">
          <mxGeometry y="40" width="240" height="260" as="geometry" />
        </mxCell>
        <mxCell id="HBmwAiEKgiXEF_s0nJef-47" value="interrogate" style="rounded=1;glass=0;shadow=0;" vertex="1" parent="HBmwAiEKgiXEF_s0nJef-46">
          <mxGeometry x="30" y="70" width="160" height="180" as="geometry" />
        </mxCell>
        <mxCell id="HBmwAiEKgiXEF_s0nJef-48" value="assistantOrchestrator" style="swimlane;whiteSpace=wrap;html=1;startSize=23;" vertex="1" parent="HBmwAiEKgiXEF_s0nJef-45">
          <mxGeometry x="250" y="40" width="240" height="210" as="geometry" />
        </mxCell>
        <mxCell id="HBmwAiEKgiXEF_s0nJef-49" value="assistantCreation" style="" vertex="1" parent="HBmwAiEKgiXEF_s0nJef-48">
          <mxGeometry x="40" y="55" width="160" height="100" as="geometry" />
        </mxCell>
        <mxCell id="HBmwAiEKgiXEF_s0nJef-50" value="" style="edgeStyle=orthogonalEdgeStyle;rounded=0;orthogonalLoop=1;jettySize=auto;html=1;startArrow=classic;startFill=1;" edge="1" parent="HBmwAiEKgiXEF_s0nJef-45" source="HBmwAiEKgiXEF_s0nJef-47" target="HBmwAiEKgiXEF_s0nJef-49">
          <mxGeometry relative="1" as="geometry">
            <Array as="points">
              <mxPoint x="220" y="130" />
              <mxPoint x="220" y="130" />
            </Array>
          </mxGeometry>
        </mxCell>
        <mxCell id="HBmwAiEKgiXEF_s0nJef-70" value="assistantFactory" style="swimlane;whiteSpace=wrap;html=1;startSize=23;" vertex="1" parent="HBmwAiEKgiXEF_s0nJef-45">
          <mxGeometry x="490" y="40" width="240" height="110" as="geometry" />
        </mxCell>
        <mxCell id="HBmwAiEKgiXEF_s0nJef-71" value="set_assets" style="" vertex="1" parent="HBmwAiEKgiXEF_s0nJef-70">
          <mxGeometry x="50" y="50" width="160" height="40" as="geometry" />
        </mxCell>
        <mxCell id="HBmwAiEKgiXEF_s0nJef-72" value="" style="edgeStyle=orthogonalEdgeStyle;rounded=0;orthogonalLoop=1;jettySize=auto;html=1;startArrow=classic;startFill=1;entryX=0;entryY=0.5;entryDx=0;entryDy=0;exitX=1.016;exitY=0.136;exitDx=0;exitDy=0;exitPerimeter=0;" edge="1" parent="HBmwAiEKgiXEF_s0nJef-45" source="HBmwAiEKgiXEF_s0nJef-49" target="HBmwAiEKgiXEF_s0nJef-71">
          <mxGeometry relative="1" as="geometry">
            <mxPoint x="450" y="110" as="sourcePoint" />
            <Array as="points">
              <mxPoint x="470" y="109" />
              <mxPoint x="540" y="109" />
            </Array>
          </mxGeometry>
        </mxCell>
        <mxCell id="HBmwAiEKgiXEF_s0nJef-82" value="assistantAPI" style="swimlane;whiteSpace=wrap;html=1;startSize=23;" vertex="1" parent="HBmwAiEKgiXEF_s0nJef-45">
          <mxGeometry x="490" y="150" width="240" height="100" as="geometry" />
        </mxCell>
        <mxCell id="HBmwAiEKgiXEF_s0nJef-83" value="creationHandler" style="" vertex="1" parent="HBmwAiEKgiXEF_s0nJef-82">
          <mxGeometry x="40" y="40" width="160" height="40" as="geometry" />
        </mxCell>
        <mxCell id="HBmwAiEKgiXEF_s0nJef-86" value="" style="endArrow=classic;html=1;rounded=0;exitX=1;exitY=0.5;exitDx=0;exitDy=0;entryX=0;entryY=0.5;entryDx=0;entryDy=0;startArrow=classic;startFill=1;" edge="1" parent="HBmwAiEKgiXEF_s0nJef-45" source="HBmwAiEKgiXEF_s0nJef-49" target="HBmwAiEKgiXEF_s0nJef-83">
          <mxGeometry width="50" height="50" relative="1" as="geometry">
            <mxPoint x="470" y="240" as="sourcePoint" />
            <mxPoint x="470" y="280" as="targetPoint" />
            <Array as="points">
              <mxPoint x="470" y="145" />
              <mxPoint x="470" y="210" />
            </Array>
          </mxGeometry>
        </mxCell>
        <mxCell id="HBmwAiEKgiXEF_s0nJef-89" value="threadsAPI" style="swimlane;whiteSpace=wrap;html=1;startSize=23;" vertex="1" parent="HBmwAiEKgiXEF_s0nJef-45">
          <mxGeometry x="250" y="250" width="240" height="110" as="geometry" />
        </mxCell>
        <mxCell id="HBmwAiEKgiXEF_s0nJef-90" value="threadCreationHandler" style="" vertex="1" parent="HBmwAiEKgiXEF_s0nJef-89">
          <mxGeometry x="40" y="50" width="160" height="40" as="geometry" />
        </mxCell>
        <mxCell id="HBmwAiEKgiXEF_s0nJef-97" style="edgeStyle=orthogonalEdgeStyle;rounded=0;orthogonalLoop=1;jettySize=auto;html=1;entryX=-0.006;entryY=0.353;entryDx=0;entryDy=0;startArrow=classic;startFill=1;exitX=1.003;exitY=0.273;exitDx=0;exitDy=0;exitPerimeter=0;entryPerimeter=0;" edge="1" parent="HBmwAiEKgiXEF_s0nJef-45" source="HBmwAiEKgiXEF_s0nJef-47" target="HBmwAiEKgiXEF_s0nJef-90">
          <mxGeometry relative="1" as="geometry">
            <mxPoint x="200" y="163" as="sourcePoint" />
            <Array as="points">
              <mxPoint x="230" y="159" />
              <mxPoint x="230" y="315" />
              <mxPoint x="290" y="315" />
            </Array>
          </mxGeometry>
        </mxCell>
        <mxCell id="HBmwAiEKgiXEF_s0nJef-98" value="messagesAPI" style="swimlane;whiteSpace=wrap;html=1;startSize=23;" vertex="1" parent="HBmwAiEKgiXEF_s0nJef-45">
          <mxGeometry x="250" y="360" width="240" height="110" as="geometry" />
        </mxCell>
        <mxCell id="HBmwAiEKgiXEF_s0nJef-99" value="messageCreationHandler" style="" vertex="1" parent="HBmwAiEKgiXEF_s0nJef-98">
          <mxGeometry x="40" y="50" width="160" height="40" as="geometry" />
        </mxCell>
        <mxCell id="HBmwAiEKgiXEF_s0nJef-102" value="runsAPI" style="swimlane;whiteSpace=wrap;html=1;startSize=23;" vertex="1" parent="HBmwAiEKgiXEF_s0nJef-45">
          <mxGeometry x="250" y="470" width="240" height="110" as="geometry" />
        </mxCell>
        <mxCell id="HBmwAiEKgiXEF_s0nJef-103" value="runCreationHandler" style="" vertex="1" parent="HBmwAiEKgiXEF_s0nJef-102">
          <mxGeometry x="40" y="50" width="160" height="40" as="geometry" />
        </mxCell>
        <mxCell id="HBmwAiEKgiXEF_s0nJef-106" style="edgeStyle=orthogonalEdgeStyle;rounded=0;orthogonalLoop=1;jettySize=auto;html=1;exitX=1;exitY=0.5;exitDx=0;exitDy=0;entryX=0;entryY=0.5;entryDx=0;entryDy=0;startArrow=classic;startFill=1;" edge="1" parent="HBmwAiEKgiXEF_s0nJef-45" source="HBmwAiEKgiXEF_s0nJef-47" target="HBmwAiEKgiXEF_s0nJef-99">
          <mxGeometry relative="1" as="geometry">
            <Array as="points">
              <mxPoint x="220" y="200" />
              <mxPoint x="220" y="430" />
            </Array>
          </mxGeometry>
        </mxCell>
        <mxCell id="HBmwAiEKgiXEF_s0nJef-107" style="edgeStyle=orthogonalEdgeStyle;rounded=0;orthogonalLoop=1;jettySize=auto;html=1;exitX=1;exitY=0.75;exitDx=0;exitDy=0;entryX=0;entryY=0.5;entryDx=0;entryDy=0;startArrow=classic;startFill=1;" edge="1" parent="HBmwAiEKgiXEF_s0nJef-45" source="HBmwAiEKgiXEF_s0nJef-47" target="HBmwAiEKgiXEF_s0nJef-103">
          <mxGeometry relative="1" as="geometry">
            <Array as="points">
              <mxPoint x="210" y="245" />
              <mxPoint x="210" y="540" />
            </Array>
          </mxGeometry>
        </mxCell>
        <mxCell id="HBmwAiEKgiXEF_s0nJef-84" value="OpenAI API" style="ellipse;shape=cloud;whiteSpace=wrap;html=1;" vertex="1" parent="1">
          <mxGeometry x="2220" y="580" width="120" height="80" as="geometry" />
        </mxCell>
        <mxCell id="HBmwAiEKgiXEF_s0nJef-88" style="edgeStyle=orthogonalEdgeStyle;rounded=0;orthogonalLoop=1;jettySize=auto;html=1;exitX=1;exitY=0.5;exitDx=0;exitDy=0;" edge="1" parent="1" source="HBmwAiEKgiXEF_s0nJef-58" target="HBmwAiEKgiXEF_s0nJef-47">
          <mxGeometry relative="1" as="geometry">
            <Array as="points" />
          </mxGeometry>
        </mxCell>
        <mxCell id="HBmwAiEKgiXEF_s0nJef-94" style="edgeStyle=orthogonalEdgeStyle;rounded=0;orthogonalLoop=1;jettySize=auto;html=1;exitX=1;exitY=0.5;exitDx=0;exitDy=0;entryX=0.429;entryY=0.03;entryDx=0;entryDy=0;entryPerimeter=0;startArrow=classic;startFill=1;" edge="1" parent="1" source="HBmwAiEKgiXEF_s0nJef-83" target="HBmwAiEKgiXEF_s0nJef-84">
          <mxGeometry relative="1" as="geometry" />
        </mxCell>
        <mxCell id="HBmwAiEKgiXEF_s0nJef-95" style="edgeStyle=orthogonalEdgeStyle;rounded=0;orthogonalLoop=1;jettySize=auto;html=1;exitX=1;exitY=0.5;exitDx=0;exitDy=0;startArrow=classic;startFill=1;" edge="1" parent="1" source="HBmwAiEKgiXEF_s0nJef-90" target="HBmwAiEKgiXEF_s0nJef-84">
          <mxGeometry relative="1" as="geometry">
            <Array as="points">
              <mxPoint x="2280" y="570" />
            </Array>
          </mxGeometry>
        </mxCell>
        <mxCell id="HBmwAiEKgiXEF_s0nJef-101" style="edgeStyle=orthogonalEdgeStyle;rounded=0;orthogonalLoop=1;jettySize=auto;html=1;startArrow=classic;startFill=1;exitX=1;exitY=0.5;exitDx=0;exitDy=0;" edge="1" parent="1" source="HBmwAiEKgiXEF_s0nJef-99" target="HBmwAiEKgiXEF_s0nJef-84">
          <mxGeometry relative="1" as="geometry">
            <mxPoint x="1790" y="550" as="sourcePoint" />
            <Array as="points">
              <mxPoint x="2280" y="680" />
            </Array>
          </mxGeometry>
        </mxCell>
        <mxCell id="HBmwAiEKgiXEF_s0nJef-108" style="edgeStyle=orthogonalEdgeStyle;rounded=0;orthogonalLoop=1;jettySize=auto;html=1;exitX=1;exitY=0.5;exitDx=0;exitDy=0;entryX=0.8;entryY=0.8;entryDx=0;entryDy=0;entryPerimeter=0;startArrow=classic;startFill=1;" edge="1" parent="1" source="HBmwAiEKgiXEF_s0nJef-103" target="HBmwAiEKgiXEF_s0nJef-84">
          <mxGeometry relative="1" as="geometry" />
        </mxCell>
      </root>
    </mxGraphModel>
  </diagram>
</mxfile>
